<svg width="36" height="31" viewBox="0 0 36 31" fill="none" xmlns="http://www.w3.org/2000/svg">
<path d="M0 15.5293C0 14.9203 0.244572 14.3362 0.67992 13.9055C1.11526 13.4748 1.70572 13.2329 2.3214 13.2329H27.7813L18.3449 4.52929C18.1095 4.32682 17.9178 4.07952 17.7813 3.80215C17.6447 3.52478 17.566 3.22303 17.5499 2.91492C17.5338 2.6068 17.5807 2.29863 17.6876 2.00882C17.7946 1.719 17.9595 1.45348 18.1725 1.22811C18.3855 1.00274 18.6422 0.822138 18.9273 0.697087C19.2124 0.572037 19.5201 0.505102 19.8319 0.50028C20.1438 0.495459 20.4534 0.55285 20.7423 0.669026C21.0313 0.785201 21.2936 0.957779 21.5136 1.17646L35.2621 13.8472C35.4949 14.062 35.6806 14.322 35.8075 14.6109C35.9345 14.8998 36 15.2114 36 15.5265C36 15.8415 35.9345 16.1531 35.8075 16.442C35.6806 16.7309 35.4949 16.9909 35.2621 17.2057L21.5136 29.8822C21.0634 30.2979 20.4647 30.5196 19.8492 30.4986C19.2337 30.4776 18.6519 30.2156 18.2317 29.7703C17.8115 29.3249 17.5873 28.7326 17.6086 28.1238C17.6298 27.5149 17.8946 26.9393 18.3449 26.5236L27.7813 17.8258H2.3214C1.70572 17.8258 1.11526 17.5838 0.67992 17.1532C0.244572 16.7225 0 16.1384 0 15.5293Z" fill="white"/>
</svg>
