<svg width="28" height="28" viewBox="0 0 28 28" fill="none" xmlns="http://www.w3.org/2000/svg">
<g id="eva:email-outline">
<path id="Vector" d="M22.1673 4.66675H5.83398C4.90573 4.66675 4.01549 5.0355 3.35911 5.69187C2.70273 6.34825 2.33398 7.23849 2.33398 8.16675V19.8334C2.33398 20.7617 2.70273 21.6519 3.35911 22.3083C4.01549 22.9647 4.90573 23.3334 5.83398 23.3334H22.1673C23.0956 23.3334 23.9858 22.9647 24.6422 22.3083C25.2986 21.6519 25.6673 20.7617 25.6673 19.8334V8.16675C25.6673 7.23849 25.2986 6.34825 24.6422 5.69187C23.9858 5.0355 23.0956 4.66675 22.1673 4.66675ZM21.3857 7.00008L14.0007 12.5417L6.61565 7.00008H21.3857ZM22.1673 21.0001H5.83398C5.52456 21.0001 5.22782 20.8772 5.00903 20.6584C4.79023 20.4396 4.66732 20.1428 4.66732 19.8334V8.45841L13.3007 14.9334C13.5026 15.0849 13.7482 15.1667 14.0007 15.1667C14.2531 15.1667 14.4987 15.0849 14.7007 14.9334L23.334 8.45841V19.8334C23.334 20.1428 23.2111 20.4396 22.9923 20.6584C22.7735 20.8772 22.4767 21.0001 22.1673 21.0001Z" fill="#5D5FEF"/>
</g>
</svg>
